<mxfile host="app.diagrams.net" agent="Mozilla/5.0 (Windows NT 10.0; Win64; x64) AppleWebKit/537.36 (KHTML, like Gecko) Chrome/131.0.0.0 Safari/537.36" version="25.0.3">
  <diagram name="Seite-1" id="sdpVUGcd8ZdfAYJY-DBQ">
    <mxGraphModel dx="1526" dy="583" grid="1" gridSize="10" guides="1" tooltips="1" connect="1" arrows="1" fold="1" page="1" pageScale="1" pageWidth="827" pageHeight="1169" math="0" shadow="0">
      <root>
        <mxCell id="0" />
        <mxCell id="1" parent="0" />
        <mxCell id="eThXzIZxuzrMQbyXuAEO-1" value="Objekt_Aktor" style="rounded=0;whiteSpace=wrap;html=1;fillColor=#F19C99;strokeColor=#b85450;fontSize=14;" parent="1" vertex="1">
          <mxGeometry x="280" width="240" height="40" as="geometry" />
        </mxCell>
        <mxCell id="eThXzIZxuzrMQbyXuAEO-2" value="" style="rounded=0;whiteSpace=wrap;html=1;fillColor=#f8cecc;strokeColor=#b85450;" parent="1" vertex="1">
          <mxGeometry x="280" y="40" width="240" height="491" as="geometry" />
        </mxCell>
        <mxCell id="eThXzIZxuzrMQbyXuAEO-3" value="Steuerungsmethoden / Eigenschaften" style="text;html=1;align=left;verticalAlign=middle;whiteSpace=wrap;rounded=0;fontStyle=4" parent="1" vertex="1">
          <mxGeometry x="290" y="91" width="220" height="30" as="geometry" />
        </mxCell>
        <mxCell id="eThXzIZxuzrMQbyXuAEO-5" value="" style="rounded=0;whiteSpace=wrap;html=1;fillColor=none;strokeColor=none;" parent="1" vertex="1">
          <mxGeometry x="290" y="121" width="220" height="20" as="geometry" />
        </mxCell>
        <mxCell id="eThXzIZxuzrMQbyXuAEO-10" value="" style="rounded=0;whiteSpace=wrap;html=1;fillColor=none;strokeColor=none;" parent="1" vertex="1">
          <mxGeometry x="290" y="141" width="220" height="20" as="geometry" />
        </mxCell>
        <mxCell id="eThXzIZxuzrMQbyXuAEO-13" value="" style="rounded=0;whiteSpace=wrap;html=1;fillColor=none;strokeColor=none;" parent="1" vertex="1">
          <mxGeometry x="290" y="161" width="220" height="20" as="geometry" />
        </mxCell>
        <mxCell id="eThXzIZxuzrMQbyXuAEO-16" value="" style="rounded=0;whiteSpace=wrap;html=1;fillColor=none;strokeColor=none;" parent="1" vertex="1">
          <mxGeometry x="290" y="181" width="220" height="20" as="geometry" />
        </mxCell>
        <mxCell id="eThXzIZxuzrMQbyXuAEO-19" value="" style="rounded=0;whiteSpace=wrap;html=1;fillColor=none;strokeColor=none;" parent="1" vertex="1">
          <mxGeometry x="290" y="201" width="220" height="20" as="geometry" />
        </mxCell>
        <mxCell id="eThXzIZxuzrMQbyXuAEO-27" value="Betriebsvariablen" style="text;html=1;align=left;verticalAlign=middle;whiteSpace=wrap;rounded=0;fontStyle=4" parent="1" vertex="1">
          <mxGeometry x="290" y="261.5" width="120" height="30" as="geometry" />
        </mxCell>
        <mxCell id="eThXzIZxuzrMQbyXuAEO-33" value="" style="rounded=0;whiteSpace=wrap;html=1;fillColor=none;strokeColor=none;" parent="1" vertex="1">
          <mxGeometry x="290" y="291.5" width="220" height="20" as="geometry" />
        </mxCell>
        <mxCell id="eThXzIZxuzrMQbyXuAEO-34" value="" style="endArrow=none;html=1;rounded=0;strokeWidth=2;" parent="1" source="eThXzIZxuzrMQbyXuAEO-33" edge="1">
          <mxGeometry width="50" height="50" relative="1" as="geometry">
            <mxPoint x="330" y="361.5" as="sourcePoint" />
            <mxPoint x="270" y="301.5" as="targetPoint" />
          </mxGeometry>
        </mxCell>
        <mxCell id="eThXzIZxuzrMQbyXuAEO-35" value="eSysCommand" style="text;html=1;align=left;verticalAlign=middle;whiteSpace=wrap;rounded=0;fontStyle=0;fontSize=10;" parent="1" vertex="1">
          <mxGeometry x="294" y="296.5" width="76" height="10" as="geometry" />
        </mxCell>
        <mxCell id="eThXzIZxuzrMQbyXuAEO-39" value="" style="endArrow=none;html=1;rounded=0;strokeWidth=2;" parent="1" edge="1">
          <mxGeometry width="50" height="50" relative="1" as="geometry">
            <mxPoint x="290" y="321.5" as="sourcePoint" />
            <mxPoint x="270" y="321.5" as="targetPoint" />
          </mxGeometry>
        </mxCell>
        <mxCell id="eThXzIZxuzrMQbyXuAEO-40" value="eSysState" style="text;html=1;align=left;verticalAlign=middle;whiteSpace=wrap;rounded=0;fontStyle=0;fontSize=10;" parent="1" vertex="1">
          <mxGeometry x="294" y="316.5" width="76" height="10" as="geometry" />
        </mxCell>
        <mxCell id="eThXzIZxuzrMQbyXuAEO-48" value="&lt;u&gt;Prozessmethoden&lt;/u&gt; (Intern / Extern)" style="text;html=1;align=left;verticalAlign=middle;whiteSpace=wrap;rounded=0;fontStyle=0" parent="1" vertex="1">
          <mxGeometry x="290" y="355" width="200" height="30" as="geometry" />
        </mxCell>
        <mxCell id="eThXzIZxuzrMQbyXuAEO-58" value="" style="endArrow=none;html=1;rounded=0;fillColor=#f8cecc;strokeColor=#b85450;entryX=1;entryY=0.464;entryDx=0;entryDy=0;entryPerimeter=0;exitX=0;exitY=0.466;exitDx=0;exitDy=0;exitPerimeter=0;strokeWidth=1;dashed=1;" parent="1" edge="1">
          <mxGeometry width="50" height="50" relative="1" as="geometry">
            <mxPoint x="280" y="261.58" as="sourcePoint" />
            <mxPoint x="520" y="261.00000000000006" as="targetPoint" />
          </mxGeometry>
        </mxCell>
        <mxCell id="eThXzIZxuzrMQbyXuAEO-59" value="" style="endArrow=none;html=1;rounded=0;fillColor=#f8cecc;strokeColor=#b85450;exitX=0;exitY=0.792;exitDx=0;exitDy=0;exitPerimeter=0;strokeWidth=1;dashed=1;entryX=1;entryY=0.793;entryDx=0;entryDy=0;entryPerimeter=0;" parent="1" edge="1">
          <mxGeometry width="50" height="50" relative="1" as="geometry">
            <mxPoint x="280" y="354.9999999999999" as="sourcePoint" />
            <mxPoint x="520" y="355.2900000000001" as="targetPoint" />
          </mxGeometry>
        </mxCell>
        <mxCell id="eThXzIZxuzrMQbyXuAEO-61" value="Skill" style="rounded=0;whiteSpace=wrap;html=1;rotation=-90;fillColor=#fff2cc;strokeColor=#d6b656;" parent="1" vertex="1">
          <mxGeometry x="540" y="161" width="130" height="30" as="geometry" />
        </mxCell>
        <mxCell id="eThXzIZxuzrMQbyXuAEO-62" value="Systemparameter" style="rounded=0;whiteSpace=wrap;html=1;rotation=-90;fillColor=#f5f5f5;fontColor=#333333;strokeColor=#666666;" parent="1" vertex="1">
          <mxGeometry x="540" y="301" width="130" height="30" as="geometry" />
        </mxCell>
        <mxCell id="eThXzIZxuzrMQbyXuAEO-66" value="Skill" style="rounded=0;whiteSpace=wrap;html=1;rotation=-90;fillColor=#fff2cc;strokeColor=#d6b656;" parent="1" vertex="1">
          <mxGeometry x="120" y="161" width="130" height="30" as="geometry" />
        </mxCell>
        <mxCell id="eThXzIZxuzrMQbyXuAEO-67" value="Systemparameter" style="rounded=0;whiteSpace=wrap;html=1;rotation=-90;fillColor=#f5f5f5;fontColor=#333333;strokeColor=#666666;" parent="1" vertex="1">
          <mxGeometry x="120" y="301" width="130" height="30" as="geometry" />
        </mxCell>
        <mxCell id="RpQ9mGnAC0z5zZGKGi01-6" style="edgeStyle=orthogonalEdgeStyle;rounded=0;orthogonalLoop=1;jettySize=auto;html=1;endArrow=none;endFill=0;strokeWidth=2;" parent="1" edge="1">
          <mxGeometry relative="1" as="geometry">
            <mxPoint x="530" y="301.5" as="targetPoint" />
            <mxPoint x="510" y="301.5" as="sourcePoint" />
          </mxGeometry>
        </mxCell>
        <mxCell id="RpQ9mGnAC0z5zZGKGi01-7" value="iErrorID" style="text;html=1;align=right;verticalAlign=middle;whiteSpace=wrap;rounded=0;fontStyle=0;fontSize=10;" parent="1" vertex="1">
          <mxGeometry x="429" y="296.5" width="75" height="10" as="geometry" />
        </mxCell>
        <mxCell id="6S4e-w0pNIEhI715A2-k-2" value="" style="group" parent="1" vertex="1" connectable="0">
          <mxGeometry x="280" y="541" width="210" height="50" as="geometry" />
        </mxCell>
        <mxCell id="eThXzIZxuzrMQbyXuAEO-118" value="2: Objektschnittstelle" style="text;html=1;align=left;verticalAlign=middle;whiteSpace=wrap;rounded=0;fontSize=8;fontStyle=2" parent="6S4e-w0pNIEhI715A2-k-2" vertex="1">
          <mxGeometry y="20" width="140" height="10" as="geometry" />
        </mxCell>
        <mxCell id="eThXzIZxuzrMQbyXuAEO-119" value="3: Modellschnittstelle" style="text;html=1;align=left;verticalAlign=middle;whiteSpace=wrap;rounded=0;fontSize=8;fontStyle=2" parent="6S4e-w0pNIEhI715A2-k-2" vertex="1">
          <mxGeometry y="30" width="140" height="20" as="geometry" />
        </mxCell>
        <mxCell id="eThXzIZxuzrMQbyXuAEO-121" value="1: Interne Schnittstelle von Prozessmodell" style="text;html=1;align=left;verticalAlign=middle;whiteSpace=wrap;rounded=0;fontSize=8;fontStyle=2" parent="6S4e-w0pNIEhI715A2-k-2" vertex="1">
          <mxGeometry width="210" height="20" as="geometry" />
        </mxCell>
        <mxCell id="6S4e-w0pNIEhI715A2-k-7" value="" style="endArrow=none;html=1;rounded=0;strokeWidth=2;" parent="1" edge="1">
          <mxGeometry width="50" height="50" relative="1" as="geometry">
            <mxPoint x="290" y="342" as="sourcePoint" />
            <mxPoint x="270" y="342" as="targetPoint" />
          </mxGeometry>
        </mxCell>
        <mxCell id="6S4e-w0pNIEhI715A2-k-8" value="iMode&amp;nbsp;" style="text;html=1;align=left;verticalAlign=middle;whiteSpace=wrap;rounded=0;fontStyle=0;fontSize=10;" parent="1" vertex="1">
          <mxGeometry x="294" y="337" width="76" height="10" as="geometry" />
        </mxCell>
        <mxCell id="YqTv8qu6AUI8KKiwsQRL-15" style="edgeStyle=orthogonalEdgeStyle;rounded=0;orthogonalLoop=1;jettySize=auto;html=1;endArrow=none;endFill=0;strokeWidth=2;" parent="1" source="YqTv8qu6AUI8KKiwsQRL-1" edge="1">
          <mxGeometry relative="1" as="geometry">
            <mxPoint x="270" y="136" as="targetPoint" />
          </mxGeometry>
        </mxCell>
        <mxCell id="YqTv8qu6AUI8KKiwsQRL-1" value="M_Start&lt;span style=&quot;color: rgba(0, 0, 0, 0); font-family: monospace; font-size: 0px; text-align: start; text-wrap-mode: nowrap;&quot;&gt;%3CmxGraphModel%3E%3Croot%3E%3CmxCell%20id%3D%220%22%2F%3E%3CmxCell%20id%3D%221%22%20parent%3D%220%22%2F%3E%3CmxCell%20id%3D%222%22%20value%3D%22Objekt%22%20style%3D%22rounded%3D0%3BwhiteSpace%3Dwrap%3Bhtml%3D1%3BfillColor%3D%23F19C99%3BstrokeColor%3D%23b85450%3BfontSize%3D14%3B%22%20vertex%3D%221%22%20parent%3D%221%22%3E%3CmxGeometry%20x%3D%22280%22%20y%3D%22280%22%20width%3D%22240%22%20height%3D%2240%22%20as%3D%22geometry%22%2F%3E%3C%2FmxCell%3E%3C%2Froot%3E%3C%2FmxGraphModel%3E&lt;/span&gt;" style="rounded=0;whiteSpace=wrap;html=1;fillColor=#F19C99;strokeColor=#b85450;fontSize=12;" parent="1" vertex="1">
          <mxGeometry x="290" y="121" width="220" height="30" as="geometry" />
        </mxCell>
        <mxCell id="YqTv8qu6AUI8KKiwsQRL-16" style="edgeStyle=orthogonalEdgeStyle;rounded=0;orthogonalLoop=1;jettySize=auto;html=1;endArrow=none;endFill=0;strokeWidth=2;" parent="1" source="YqTv8qu6AUI8KKiwsQRL-2" edge="1">
          <mxGeometry relative="1" as="geometry">
            <mxPoint x="270" y="171" as="targetPoint" />
          </mxGeometry>
        </mxCell>
        <mxCell id="YqTv8qu6AUI8KKiwsQRL-2" value="M_Stop&lt;span style=&quot;color: rgba(0, 0, 0, 0); font-family: monospace; font-size: 0px; text-align: start; text-wrap-mode: nowrap;&quot;&gt;%3CmxGraphModel%3E%3Croot%3E%3CmxCell%20id%3D%220%22%2F%3E%3CmxCell%20id%3D%221%22%20parent%3D%220%22%2F%3E%3CmxCell%20id%3D%222%22%20value%3D%22Objekt%22%20style%3D%22rounded%3D0%3BwhiteSpace%3Dwrap%3Bhtml%3D1%3BfillColor%3D%23F19C99%3BstrokeColor%3D%23b85450%3BfontSize%3D14%3B%22%20vertex%3D%221%22%20parent%3D%221%22%3E%3CmxGeometry%20x%3D%22280%22%20y%3D%22280%22%20width%3D%22240%22%20height%3D%2240%22%20as%3D%22geometry%22%2F%3E%3C%2FmxCell%3E%3C%2Froot%3E%3C%2FmxGraphMod&lt;/span&gt;" style="rounded=0;whiteSpace=wrap;html=1;fillColor=#F19C99;strokeColor=#b85450;fontSize=12;" parent="1" vertex="1">
          <mxGeometry x="290" y="156" width="220" height="30" as="geometry" />
        </mxCell>
        <mxCell id="YqTv8qu6AUI8KKiwsQRL-17" style="edgeStyle=orthogonalEdgeStyle;rounded=0;orthogonalLoop=1;jettySize=auto;html=1;endArrow=none;endFill=0;strokeWidth=2;" parent="1" source="YqTv8qu6AUI8KKiwsQRL-3" edge="1">
          <mxGeometry relative="1" as="geometry">
            <mxPoint x="270" y="206" as="targetPoint" />
          </mxGeometry>
        </mxCell>
        <mxCell id="YqTv8qu6AUI8KKiwsQRL-3" value="M_Reset&lt;span style=&quot;color: rgba(0, 0, 0, 0); font-family: monospace; font-size: 0px; text-align: start; text-wrap-mode: nowrap;&quot;&gt;%3CmxGraphModel%3E%3Croot%3E%3CmxCell%20id%3D%220%22%2F%3E%3CmxCell%20id%3D%221%22%20parent%3D%220%22%2F%3E%3CmxCell%20id%3D%222%22%20value%3D%22Objekt%22%20style%3D%22rounded%3D0%3BwhiteSpace%3Dwrap%3Bhtml%3D1%3BfillColor%3D%23F19C99%3BstrokeColor%3D%23b85450%3BfontSize%3D14%3B%22%20vertex%3D%221%22%20parent%3D%221%22%3E%3CmxGeometry%20x%3D%22280%22%20y%3D%22280%22%20width%3D%22240%22%20height%3D%2240%22%20as%3D%22geometry%22%2F%3E%3C%2FmxCell%3E%3C%2Froot%3E%3C%2FmxGraphMod&lt;/span&gt;" style="rounded=0;whiteSpace=wrap;html=1;fillColor=#F19C99;strokeColor=#b85450;fontSize=12;" parent="1" vertex="1">
          <mxGeometry x="290" y="191" width="220" height="30" as="geometry" />
        </mxCell>
        <mxCell id="YqTv8qu6AUI8KKiwsQRL-18" style="edgeStyle=orthogonalEdgeStyle;rounded=0;orthogonalLoop=1;jettySize=auto;html=1;endArrow=none;endFill=0;strokeWidth=2;" parent="1" source="YqTv8qu6AUI8KKiwsQRL-7" edge="1">
          <mxGeometry relative="1" as="geometry">
            <mxPoint x="530" y="241" as="targetPoint" />
          </mxGeometry>
        </mxCell>
        <mxCell id="YqTv8qu6AUI8KKiwsQRL-7" value="P_State (GET)" style="rounded=0;whiteSpace=wrap;html=1;fillColor=#F19C99;strokeColor=#b85450;fontSize=12;" parent="1" vertex="1">
          <mxGeometry x="290" y="226" width="220" height="30" as="geometry" />
        </mxCell>
        <mxCell id="YqTv8qu6AUI8KKiwsQRL-19" style="edgeStyle=orthogonalEdgeStyle;rounded=0;orthogonalLoop=1;jettySize=auto;html=1;strokeWidth=2;endArrow=none;endFill=0;" parent="1" source="YqTv8qu6AUI8KKiwsQRL-9" edge="1">
          <mxGeometry relative="1" as="geometry">
            <mxPoint x="270" y="400" as="targetPoint" />
          </mxGeometry>
        </mxCell>
        <mxCell id="YqTv8qu6AUI8KKiwsQRL-9" value="M_Prozessmethoden" style="rounded=0;whiteSpace=wrap;html=1;fillColor=#F19C99;strokeColor=#b85450;fontSize=12;" parent="1" vertex="1">
          <mxGeometry x="290" y="385" width="220" height="30" as="geometry" />
        </mxCell>
        <mxCell id="YqTv8qu6AUI8KKiwsQRL-10" value="" style="endArrow=none;html=1;rounded=0;fillColor=#f8cecc;strokeColor=#b85450;exitX=0;exitY=0.792;exitDx=0;exitDy=0;exitPerimeter=0;strokeWidth=1;dashed=1;entryX=1;entryY=0.793;entryDx=0;entryDy=0;entryPerimeter=0;" parent="1" edge="1">
          <mxGeometry width="50" height="50" relative="1" as="geometry">
            <mxPoint x="280" y="420.9999999999999" as="sourcePoint" />
            <mxPoint x="520" y="421.2900000000001" as="targetPoint" />
          </mxGeometry>
        </mxCell>
        <mxCell id="YqTv8qu6AUI8KKiwsQRL-11" value="Prozesseigenschaften" style="text;html=1;align=left;verticalAlign=middle;whiteSpace=wrap;rounded=0;fontStyle=4" parent="1" vertex="1">
          <mxGeometry x="290" y="421" width="120" height="30" as="geometry" />
        </mxCell>
        <mxCell id="YqTv8qu6AUI8KKiwsQRL-20" style="edgeStyle=orthogonalEdgeStyle;rounded=0;orthogonalLoop=1;jettySize=auto;html=1;strokeWidth=2;endArrow=none;endFill=0;" parent="1" source="YqTv8qu6AUI8KKiwsQRL-13" edge="1">
          <mxGeometry relative="1" as="geometry">
            <mxPoint x="270" y="466" as="targetPoint" />
          </mxGeometry>
        </mxCell>
        <mxCell id="YqTv8qu6AUI8KKiwsQRL-13" value="P_Prozessparameter (SET)" style="rounded=0;whiteSpace=wrap;html=1;fillColor=#F19C99;strokeColor=#b85450;fontSize=12;" parent="1" vertex="1">
          <mxGeometry x="290" y="451" width="220" height="30" as="geometry" />
        </mxCell>
        <mxCell id="YqTv8qu6AUI8KKiwsQRL-21" style="edgeStyle=orthogonalEdgeStyle;rounded=0;orthogonalLoop=1;jettySize=auto;html=1;strokeWidth=2;endArrow=none;endFill=0;" parent="1" source="YqTv8qu6AUI8KKiwsQRL-14" edge="1">
          <mxGeometry relative="1" as="geometry">
            <mxPoint x="530" y="502" as="targetPoint" />
          </mxGeometry>
        </mxCell>
        <mxCell id="YqTv8qu6AUI8KKiwsQRL-14" value="P_Prozessinformationen (GET)" style="rounded=0;whiteSpace=wrap;html=1;fillColor=#F19C99;strokeColor=#b85450;fontSize=12;" parent="1" vertex="1">
          <mxGeometry x="290" y="487" width="220" height="30" as="geometry" />
        </mxCell>
        <mxCell id="YqTv8qu6AUI8KKiwsQRL-24" value="Manuell-HMI" style="rounded=0;whiteSpace=wrap;html=1;rotation=-90;fillColor=#d5e8d4;strokeColor=#82b366;" parent="1" vertex="1">
          <mxGeometry x="120" y="441" width="130" height="30" as="geometry" />
        </mxCell>
        <mxCell id="YqTv8qu6AUI8KKiwsQRL-25" value="Manuell-HMI" style="rounded=0;whiteSpace=wrap;html=1;rotation=-90;fillColor=#d5e8d4;strokeColor=#82b366;" parent="1" vertex="1">
          <mxGeometry x="540" y="441" width="130" height="30" as="geometry" />
        </mxCell>
        <mxCell id="YqTv8qu6AUI8KKiwsQRL-27" value="" style="endArrow=none;html=1;rounded=0;fillColor=#dae8fc;strokeColor=#6c8ebf;" parent="1" edge="1">
          <mxGeometry width="50" height="50" relative="1" as="geometry">
            <mxPoint x="250" y="181" as="sourcePoint" />
            <mxPoint x="200" y="181" as="targetPoint" />
          </mxGeometry>
        </mxCell>
        <mxCell id="YqTv8qu6AUI8KKiwsQRL-28" value="" style="endArrow=none;html=1;rounded=0;fillColor=#dae8fc;strokeColor=#6c8ebf;" parent="1" edge="1">
          <mxGeometry width="50" height="50" relative="1" as="geometry">
            <mxPoint x="230" y="161" as="sourcePoint" />
            <mxPoint x="200" y="161" as="targetPoint" />
          </mxGeometry>
        </mxCell>
        <mxCell id="YqTv8qu6AUI8KKiwsQRL-29" value="" style="endArrow=none;html=1;rounded=0;fillColor=#dae8fc;strokeColor=#6c8ebf;" parent="1" edge="1">
          <mxGeometry width="50" height="50" relative="1" as="geometry">
            <mxPoint x="230" y="141" as="sourcePoint" />
            <mxPoint x="200" y="141" as="targetPoint" />
          </mxGeometry>
        </mxCell>
        <mxCell id="YqTv8qu6AUI8KKiwsQRL-30" value="" style="endArrow=none;html=1;rounded=0;" parent="1" edge="1">
          <mxGeometry width="50" height="50" relative="1" as="geometry">
            <mxPoint x="240" y="201" as="sourcePoint" />
            <mxPoint x="200" y="201" as="targetPoint" />
          </mxGeometry>
        </mxCell>
        <mxCell id="YqTv8qu6AUI8KKiwsQRL-31" value="" style="endArrow=none;html=1;rounded=0;" parent="1" edge="1">
          <mxGeometry width="50" height="50" relative="1" as="geometry">
            <mxPoint x="230" y="221" as="sourcePoint" />
            <mxPoint x="200" y="221" as="targetPoint" />
          </mxGeometry>
        </mxCell>
        <mxCell id="YqTv8qu6AUI8KKiwsQRL-33" value="" style="endArrow=none;html=1;rounded=0;fillColor=#dae8fc;strokeColor=#6c8ebf;" parent="1" edge="1">
          <mxGeometry width="50" height="50" relative="1" as="geometry">
            <mxPoint x="260" y="135.95" as="sourcePoint" />
            <mxPoint x="230" y="136" as="targetPoint" />
          </mxGeometry>
        </mxCell>
        <mxCell id="YqTv8qu6AUI8KKiwsQRL-34" value="" style="endArrow=none;html=1;rounded=0;fillColor=#dae8fc;strokeColor=#6c8ebf;" parent="1" edge="1">
          <mxGeometry width="50" height="50" relative="1" as="geometry">
            <mxPoint x="230" y="136" as="sourcePoint" />
            <mxPoint x="230" y="141" as="targetPoint" />
          </mxGeometry>
        </mxCell>
        <mxCell id="YqTv8qu6AUI8KKiwsQRL-35" value="" style="endArrow=none;html=1;rounded=0;fillColor=#dae8fc;strokeColor=#6c8ebf;" parent="1" edge="1">
          <mxGeometry width="50" height="50" relative="1" as="geometry">
            <mxPoint x="260" y="170.95" as="sourcePoint" />
            <mxPoint x="230" y="171" as="targetPoint" />
          </mxGeometry>
        </mxCell>
        <mxCell id="YqTv8qu6AUI8KKiwsQRL-36" value="" style="endArrow=none;html=1;rounded=0;fillColor=#dae8fc;strokeColor=#6c8ebf;" parent="1" edge="1">
          <mxGeometry width="50" height="50" relative="1" as="geometry">
            <mxPoint x="230" y="171" as="sourcePoint" />
            <mxPoint x="230" y="161" as="targetPoint" />
          </mxGeometry>
        </mxCell>
        <mxCell id="YqTv8qu6AUI8KKiwsQRL-37" value="" style="endArrow=none;html=1;rounded=0;fillColor=#dae8fc;strokeColor=#6c8ebf;" parent="1" edge="1">
          <mxGeometry width="50" height="50" relative="1" as="geometry">
            <mxPoint x="260" y="205.95000000000005" as="sourcePoint" />
            <mxPoint x="250" y="206" as="targetPoint" />
          </mxGeometry>
        </mxCell>
        <mxCell id="YqTv8qu6AUI8KKiwsQRL-38" value="" style="endArrow=none;html=1;rounded=0;fillColor=#dae8fc;strokeColor=#6c8ebf;" parent="1" edge="1">
          <mxGeometry width="50" height="50" relative="1" as="geometry">
            <mxPoint x="250" y="181" as="sourcePoint" />
            <mxPoint x="250" y="206" as="targetPoint" />
          </mxGeometry>
        </mxCell>
        <mxCell id="YqTv8qu6AUI8KKiwsQRL-40" value="" style="endArrow=none;html=1;rounded=0;" parent="1" edge="1">
          <mxGeometry width="50" height="50" relative="1" as="geometry">
            <mxPoint x="240" y="201" as="sourcePoint" />
            <mxPoint x="240" y="401" as="targetPoint" />
          </mxGeometry>
        </mxCell>
        <mxCell id="YqTv8qu6AUI8KKiwsQRL-41" value="" style="endArrow=none;html=1;rounded=0;" parent="1" edge="1">
          <mxGeometry width="50" height="50" relative="1" as="geometry">
            <mxPoint x="260" y="401" as="sourcePoint" />
            <mxPoint x="240" y="401" as="targetPoint" />
          </mxGeometry>
        </mxCell>
        <mxCell id="YqTv8qu6AUI8KKiwsQRL-42" value="" style="endArrow=none;html=1;rounded=0;" parent="1" edge="1">
          <mxGeometry width="50" height="50" relative="1" as="geometry">
            <mxPoint x="230" y="221" as="sourcePoint" />
            <mxPoint x="230" y="466" as="targetPoint" />
          </mxGeometry>
        </mxCell>
        <mxCell id="YqTv8qu6AUI8KKiwsQRL-43" value="" style="endArrow=none;html=1;rounded=0;" parent="1" edge="1">
          <mxGeometry width="50" height="50" relative="1" as="geometry">
            <mxPoint x="260" y="465.9" as="sourcePoint" />
            <mxPoint x="230" y="466" as="targetPoint" />
          </mxGeometry>
        </mxCell>
        <mxCell id="YqTv8qu6AUI8KKiwsQRL-44" value="" style="endArrow=none;html=1;rounded=0;" parent="1" edge="1">
          <mxGeometry width="50" height="50" relative="1" as="geometry">
            <mxPoint x="225" y="301" as="sourcePoint" />
            <mxPoint x="200" y="301" as="targetPoint" />
          </mxGeometry>
        </mxCell>
        <mxCell id="YqTv8qu6AUI8KKiwsQRL-46" value="" style="endArrow=none;html=1;rounded=0;" parent="1" edge="1">
          <mxGeometry width="50" height="50" relative="1" as="geometry">
            <mxPoint x="225" y="321" as="sourcePoint" />
            <mxPoint x="200" y="321" as="targetPoint" />
          </mxGeometry>
        </mxCell>
        <mxCell id="YqTv8qu6AUI8KKiwsQRL-47" value="" style="endArrow=none;html=1;rounded=0;" parent="1" edge="1">
          <mxGeometry width="50" height="50" relative="1" as="geometry">
            <mxPoint x="225" y="341" as="sourcePoint" />
            <mxPoint x="200" y="341" as="targetPoint" />
          </mxGeometry>
        </mxCell>
        <mxCell id="YqTv8qu6AUI8KKiwsQRL-49" value="" style="endArrow=none;html=1;rounded=0;" parent="1" edge="1">
          <mxGeometry width="50" height="50" relative="1" as="geometry">
            <mxPoint x="260" y="301" as="sourcePoint" />
            <mxPoint x="245" y="301" as="targetPoint" />
          </mxGeometry>
        </mxCell>
        <mxCell id="YqTv8qu6AUI8KKiwsQRL-50" value="" style="endArrow=none;html=1;rounded=0;" parent="1" edge="1">
          <mxGeometry width="50" height="50" relative="1" as="geometry">
            <mxPoint x="260" y="321" as="sourcePoint" />
            <mxPoint x="245" y="321" as="targetPoint" />
          </mxGeometry>
        </mxCell>
        <mxCell id="YqTv8qu6AUI8KKiwsQRL-51" value="" style="endArrow=none;html=1;rounded=0;" parent="1" edge="1">
          <mxGeometry width="50" height="50" relative="1" as="geometry">
            <mxPoint x="260" y="341" as="sourcePoint" />
            <mxPoint x="245" y="341" as="targetPoint" />
          </mxGeometry>
        </mxCell>
        <mxCell id="YqTv8qu6AUI8KKiwsQRL-52" value="" style="endArrow=none;html=1;rounded=0;" parent="1" edge="1">
          <mxGeometry width="50" height="50" relative="1" as="geometry">
            <mxPoint x="237" y="341" as="sourcePoint" />
            <mxPoint x="232" y="341" as="targetPoint" />
          </mxGeometry>
        </mxCell>
        <mxCell id="YqTv8qu6AUI8KKiwsQRL-53" value="" style="endArrow=none;html=1;rounded=0;" parent="1" edge="1">
          <mxGeometry width="50" height="50" relative="1" as="geometry">
            <mxPoint x="238" y="321" as="sourcePoint" />
            <mxPoint x="233" y="321" as="targetPoint" />
          </mxGeometry>
        </mxCell>
        <mxCell id="YqTv8qu6AUI8KKiwsQRL-54" value="" style="endArrow=none;html=1;rounded=0;" parent="1" edge="1">
          <mxGeometry width="50" height="50" relative="1" as="geometry">
            <mxPoint x="238" y="301" as="sourcePoint" />
            <mxPoint x="233" y="301" as="targetPoint" />
          </mxGeometry>
        </mxCell>
        <mxCell id="YqTv8qu6AUI8KKiwsQRL-55" value="" style="endArrow=none;html=1;rounded=0;dashed=1;" parent="1" edge="1">
          <mxGeometry width="50" height="50" relative="1" as="geometry">
            <mxPoint x="225" y="441" as="sourcePoint" />
            <mxPoint x="200" y="441" as="targetPoint" />
          </mxGeometry>
        </mxCell>
        <mxCell id="YqTv8qu6AUI8KKiwsQRL-56" value="" style="endArrow=none;html=1;rounded=0;dashed=1;" parent="1" edge="1">
          <mxGeometry width="50" height="50" relative="1" as="geometry">
            <mxPoint x="270" y="441" as="sourcePoint" />
            <mxPoint x="235" y="441" as="targetPoint" />
          </mxGeometry>
        </mxCell>
        <mxCell id="YqTv8qu6AUI8KKiwsQRL-57" value="" style="endArrow=none;html=1;rounded=0;dashed=1;" parent="1" edge="1">
          <mxGeometry width="50" height="50" relative="1" as="geometry">
            <mxPoint x="270" y="441" as="sourcePoint" />
            <mxPoint x="270" y="410" as="targetPoint" />
          </mxGeometry>
        </mxCell>
        <mxCell id="YqTv8qu6AUI8KKiwsQRL-58" value="" style="endArrow=none;html=1;rounded=0;dashed=1;" parent="1" edge="1">
          <mxGeometry width="50" height="50" relative="1" as="geometry">
            <mxPoint x="270" y="491" as="sourcePoint" />
            <mxPoint x="200" y="491" as="targetPoint" />
          </mxGeometry>
        </mxCell>
        <mxCell id="YqTv8qu6AUI8KKiwsQRL-59" value="" style="endArrow=none;html=1;rounded=0;dashed=1;" parent="1" edge="1">
          <mxGeometry width="50" height="50" relative="1" as="geometry">
            <mxPoint x="270" y="491" as="sourcePoint" />
            <mxPoint x="270" y="471" as="targetPoint" />
          </mxGeometry>
        </mxCell>
        <mxCell id="YqTv8qu6AUI8KKiwsQRL-60" value="" style="endArrow=none;html=1;rounded=0;fillColor=#dae8fc;strokeColor=#6c8ebf;" parent="1" edge="1">
          <mxGeometry width="50" height="50" relative="1" as="geometry">
            <mxPoint x="550" y="241" as="sourcePoint" />
            <mxPoint x="540" y="240.85000000000002" as="targetPoint" />
          </mxGeometry>
        </mxCell>
        <mxCell id="YqTv8qu6AUI8KKiwsQRL-61" value="" style="endArrow=none;html=1;rounded=0;fillColor=#dae8fc;strokeColor=#6c8ebf;" parent="1" edge="1">
          <mxGeometry width="50" height="50" relative="1" as="geometry">
            <mxPoint x="590" y="151.14999999999998" as="sourcePoint" />
            <mxPoint x="550" y="151" as="targetPoint" />
          </mxGeometry>
        </mxCell>
        <mxCell id="YqTv8qu6AUI8KKiwsQRL-62" value="" style="endArrow=none;html=1;rounded=0;fillColor=#dae8fc;strokeColor=#6c8ebf;" parent="1" edge="1">
          <mxGeometry width="50" height="50" relative="1" as="geometry">
            <mxPoint x="550" y="241" as="sourcePoint" />
            <mxPoint x="550" y="151" as="targetPoint" />
          </mxGeometry>
        </mxCell>
        <mxCell id="YqTv8qu6AUI8KKiwsQRL-63" value="" style="endArrow=none;html=1;rounded=0;fillColor=#dae8fc;strokeColor=#6c8ebf;" parent="1" edge="1">
          <mxGeometry width="50" height="50" relative="1" as="geometry">
            <mxPoint x="590" y="201.14999999999998" as="sourcePoint" />
            <mxPoint x="560" y="201" as="targetPoint" />
          </mxGeometry>
        </mxCell>
        <mxCell id="YqTv8qu6AUI8KKiwsQRL-64" value="" style="endArrow=none;html=1;rounded=0;fillColor=#dae8fc;strokeColor=#6c8ebf;" parent="1" edge="1">
          <mxGeometry width="50" height="50" relative="1" as="geometry">
            <mxPoint x="560" y="501.19230769230774" as="sourcePoint" />
            <mxPoint x="560" y="201" as="targetPoint" />
          </mxGeometry>
        </mxCell>
        <mxCell id="YqTv8qu6AUI8KKiwsQRL-65" value="" style="endArrow=none;html=1;rounded=0;fillColor=#dae8fc;strokeColor=#6c8ebf;" parent="1" edge="1">
          <mxGeometry width="50" height="50" relative="1" as="geometry">
            <mxPoint x="560" y="501" as="sourcePoint" />
            <mxPoint x="540" y="501" as="targetPoint" />
          </mxGeometry>
        </mxCell>
        <mxCell id="YqTv8qu6AUI8KKiwsQRL-66" value="" style="endArrow=none;html=1;rounded=0;" parent="1" edge="1">
          <mxGeometry width="50" height="50" relative="1" as="geometry">
            <mxPoint x="555" y="301" as="sourcePoint" />
            <mxPoint x="540" y="301" as="targetPoint" />
          </mxGeometry>
        </mxCell>
        <mxCell id="YqTv8qu6AUI8KKiwsQRL-67" value="" style="endArrow=none;html=1;rounded=0;" parent="1" edge="1">
          <mxGeometry width="50" height="50" relative="1" as="geometry">
            <mxPoint x="590" y="301" as="sourcePoint" />
            <mxPoint x="565" y="301" as="targetPoint" />
          </mxGeometry>
        </mxCell>
        <mxCell id="YqTv8qu6AUI8KKiwsQRL-68" value="" style="endArrow=none;html=1;rounded=0;dashed=1;" parent="1" edge="1">
          <mxGeometry width="50" height="50" relative="1" as="geometry">
            <mxPoint x="530" y="451" as="sourcePoint" />
            <mxPoint x="530" y="491" as="targetPoint" />
          </mxGeometry>
        </mxCell>
        <mxCell id="YqTv8qu6AUI8KKiwsQRL-69" value="" style="endArrow=none;html=1;rounded=0;dashed=1;" parent="1" edge="1">
          <mxGeometry width="50" height="50" relative="1" as="geometry">
            <mxPoint x="530" y="451" as="sourcePoint" />
            <mxPoint x="555" y="451" as="targetPoint" />
          </mxGeometry>
        </mxCell>
        <mxCell id="YqTv8qu6AUI8KKiwsQRL-70" value="" style="endArrow=none;html=1;rounded=0;dashed=1;" parent="1" edge="1">
          <mxGeometry width="50" height="50" relative="1" as="geometry">
            <mxPoint x="565" y="451" as="sourcePoint" />
            <mxPoint x="590" y="451" as="targetPoint" />
          </mxGeometry>
        </mxCell>
        <mxCell id="YqTv8qu6AUI8KKiwsQRL-71" value="" style="endArrow=none;html=1;rounded=0;dashed=1;" parent="1" edge="1">
          <mxGeometry width="50" height="50" relative="1" as="geometry">
            <mxPoint x="220" y="411" as="sourcePoint" />
            <mxPoint x="200" y="411" as="targetPoint" />
          </mxGeometry>
        </mxCell>
        <mxCell id="YqTv8qu6AUI8KKiwsQRL-73" value="" style="endArrow=none;html=1;rounded=0;dashed=1;" parent="1" edge="1">
          <mxGeometry width="50" height="50" relative="1" as="geometry">
            <mxPoint x="220" y="411" as="sourcePoint" />
            <mxPoint x="220" y="346" as="targetPoint" />
          </mxGeometry>
        </mxCell>
        <mxCell id="YqTv8qu6AUI8KKiwsQRL-74" value="" style="endArrow=none;html=1;rounded=0;dashed=1;" parent="1" edge="1">
          <mxGeometry width="50" height="50" relative="1" as="geometry">
            <mxPoint x="270" y="271" as="sourcePoint" />
            <mxPoint x="270" y="211" as="targetPoint" />
          </mxGeometry>
        </mxCell>
        <mxCell id="YqTv8qu6AUI8KKiwsQRL-75" value="" style="endArrow=none;html=1;rounded=0;dashed=1;" parent="1" edge="1">
          <mxGeometry width="50" height="50" relative="1" as="geometry">
            <mxPoint x="270" y="271" as="sourcePoint" />
            <mxPoint x="244" y="271" as="targetPoint" />
          </mxGeometry>
        </mxCell>
        <mxCell id="YqTv8qu6AUI8KKiwsQRL-76" value="" style="endArrow=none;html=1;rounded=0;dashed=1;" parent="1" edge="1">
          <mxGeometry width="50" height="50" relative="1" as="geometry">
            <mxPoint x="225" y="271" as="sourcePoint" />
            <mxPoint x="220" y="271" as="targetPoint" />
          </mxGeometry>
        </mxCell>
        <mxCell id="YqTv8qu6AUI8KKiwsQRL-78" value="" style="endArrow=none;html=1;rounded=0;dashed=1;" parent="1" edge="1">
          <mxGeometry width="50" height="50" relative="1" as="geometry">
            <mxPoint x="238" y="271" as="sourcePoint" />
            <mxPoint x="233" y="271" as="targetPoint" />
          </mxGeometry>
        </mxCell>
        <mxCell id="YqTv8qu6AUI8KKiwsQRL-79" value="" style="endArrow=none;html=1;rounded=0;dashed=1;" parent="1" edge="1">
          <mxGeometry width="50" height="50" relative="1" as="geometry">
            <mxPoint x="220" y="316" as="sourcePoint" />
            <mxPoint x="220" y="306" as="targetPoint" />
          </mxGeometry>
        </mxCell>
        <mxCell id="YqTv8qu6AUI8KKiwsQRL-80" value="" style="endArrow=none;html=1;rounded=0;dashed=1;" parent="1" edge="1">
          <mxGeometry width="50" height="50" relative="1" as="geometry">
            <mxPoint x="220" y="336.5" as="sourcePoint" />
            <mxPoint x="220" y="326.5" as="targetPoint" />
          </mxGeometry>
        </mxCell>
        <mxCell id="YqTv8qu6AUI8KKiwsQRL-81" value="" style="endArrow=none;html=1;rounded=0;dashed=1;" parent="1" edge="1">
          <mxGeometry width="50" height="50" relative="1" as="geometry">
            <mxPoint x="220" y="296.5" as="sourcePoint" />
            <mxPoint x="220" y="271" as="targetPoint" />
          </mxGeometry>
        </mxCell>
        <mxCell id="YqTv8qu6AUI8KKiwsQRL-82" value="3" style="ellipse;whiteSpace=wrap;html=1;aspect=fixed;fontSize=6;fillColor=#f5f5f5;fontColor=#333333;strokeColor=#666666;" parent="1" vertex="1">
          <mxGeometry x="524" y="227" width="10" height="10" as="geometry" />
        </mxCell>
        <mxCell id="YqTv8qu6AUI8KKiwsQRL-83" value="3" style="ellipse;whiteSpace=wrap;html=1;aspect=fixed;fontSize=6;fillColor=#f5f5f5;fontColor=#333333;strokeColor=#666666;" parent="1" vertex="1">
          <mxGeometry x="265" y="122" width="10" height="10" as="geometry" />
        </mxCell>
        <mxCell id="YqTv8qu6AUI8KKiwsQRL-84" value="3" style="ellipse;whiteSpace=wrap;html=1;aspect=fixed;fontSize=6;fillColor=#f5f5f5;fontColor=#333333;strokeColor=#666666;" parent="1" vertex="1">
          <mxGeometry x="265" y="157" width="10" height="10" as="geometry" />
        </mxCell>
        <mxCell id="YqTv8qu6AUI8KKiwsQRL-85" value="3" style="ellipse;whiteSpace=wrap;html=1;aspect=fixed;fontSize=6;fillColor=#f5f5f5;fontColor=#333333;strokeColor=#666666;" parent="1" vertex="1">
          <mxGeometry x="265" y="192" width="10" height="10" as="geometry" />
        </mxCell>
        <mxCell id="YqTv8qu6AUI8KKiwsQRL-86" value="3" style="ellipse;whiteSpace=wrap;html=1;aspect=fixed;fontSize=6;fillColor=#f5f5f5;fontColor=#333333;strokeColor=#666666;" parent="1" vertex="1">
          <mxGeometry x="265" y="385" width="10" height="10" as="geometry" />
        </mxCell>
        <mxCell id="YqTv8qu6AUI8KKiwsQRL-87" value="3" style="ellipse;whiteSpace=wrap;html=1;aspect=fixed;fontSize=6;fillColor=#f5f5f5;fontColor=#333333;strokeColor=#666666;" parent="1" vertex="1">
          <mxGeometry x="265" y="452" width="10" height="10" as="geometry" />
        </mxCell>
        <mxCell id="YqTv8qu6AUI8KKiwsQRL-88" value="2" style="ellipse;whiteSpace=wrap;html=1;aspect=fixed;fontSize=6;fillColor=#f5f5f5;fontColor=#333333;strokeColor=#666666;" parent="1" vertex="1">
          <mxGeometry x="265" y="286.5" width="10" height="10" as="geometry" />
        </mxCell>
        <mxCell id="YqTv8qu6AUI8KKiwsQRL-89" value="2" style="ellipse;whiteSpace=wrap;html=1;aspect=fixed;fontSize=6;fillColor=#f5f5f5;fontColor=#333333;strokeColor=#666666;" parent="1" vertex="1">
          <mxGeometry x="265" y="307" width="10" height="10" as="geometry" />
        </mxCell>
        <mxCell id="YqTv8qu6AUI8KKiwsQRL-90" value="2" style="ellipse;whiteSpace=wrap;html=1;aspect=fixed;fontSize=6;fillColor=#f5f5f5;fontColor=#333333;strokeColor=#666666;" parent="1" vertex="1">
          <mxGeometry x="265" y="327.5" width="10" height="10" as="geometry" />
        </mxCell>
        <mxCell id="YqTv8qu6AUI8KKiwsQRL-91" value="2" style="ellipse;whiteSpace=wrap;html=1;aspect=fixed;fontSize=6;fillColor=#f5f5f5;fontColor=#333333;strokeColor=#666666;" parent="1" vertex="1">
          <mxGeometry x="524" y="287.5" width="10" height="10" as="geometry" />
        </mxCell>
        <mxCell id="YqTv8qu6AUI8KKiwsQRL-92" value="1" style="ellipse;whiteSpace=wrap;html=1;aspect=fixed;fontSize=6;fillColor=#f5f5f5;fontColor=#333333;strokeColor=#666666;" parent="1" vertex="1">
          <mxGeometry x="537" y="507" width="10" height="10" as="geometry" />
        </mxCell>
        <mxCell id="YqTv8qu6AUI8KKiwsQRL-93" value="3" style="ellipse;whiteSpace=wrap;html=1;aspect=fixed;fontSize=6;fillColor=#f5f5f5;fontColor=#333333;strokeColor=#666666;" parent="1" vertex="1">
          <mxGeometry x="524" y="507" width="10" height="10" as="geometry" />
        </mxCell>
        <mxCell id="YqTv8qu6AUI8KKiwsQRL-94" value="1" style="ellipse;whiteSpace=wrap;html=1;aspect=fixed;fontSize=6;fillColor=#f5f5f5;fontColor=#333333;strokeColor=#666666;" parent="1" vertex="1">
          <mxGeometry x="253" y="192" width="10" height="10" as="geometry" />
        </mxCell>
        <mxCell id="YqTv8qu6AUI8KKiwsQRL-95" value="1" style="ellipse;whiteSpace=wrap;html=1;aspect=fixed;fontSize=6;fillColor=#f5f5f5;fontColor=#333333;strokeColor=#666666;" parent="1" vertex="1">
          <mxGeometry x="253" y="385" width="10" height="10" as="geometry" />
        </mxCell>
        <mxCell id="YqTv8qu6AUI8KKiwsQRL-96" value="1" style="ellipse;whiteSpace=wrap;html=1;aspect=fixed;fontSize=6;fillColor=#f5f5f5;fontColor=#333333;strokeColor=#666666;" parent="1" vertex="1">
          <mxGeometry x="253" y="452" width="10" height="10" as="geometry" />
        </mxCell>
        <mxCell id="kwF5IDM4YXNR0EJTPlkq-1" value="Objekt_Sensor" style="rounded=0;whiteSpace=wrap;html=1;fillColor=#F19C99;strokeColor=#b85450;fontSize=14;" parent="1" vertex="1">
          <mxGeometry x="280" y="630" width="240" height="40" as="geometry" />
        </mxCell>
        <mxCell id="kwF5IDM4YXNR0EJTPlkq-2" value="" style="rounded=0;whiteSpace=wrap;html=1;fillColor=#f8cecc;strokeColor=#b85450;" parent="1" vertex="1">
          <mxGeometry x="280" y="670" width="240" height="351" as="geometry" />
        </mxCell>
        <mxCell id="kwF5IDM4YXNR0EJTPlkq-3" value="Steuerungseigenschaften" style="text;html=1;align=left;verticalAlign=middle;whiteSpace=wrap;rounded=0;fontStyle=4" parent="1" vertex="1">
          <mxGeometry x="290" y="721" width="220" height="30" as="geometry" />
        </mxCell>
        <mxCell id="kwF5IDM4YXNR0EJTPlkq-4" value="" style="rounded=0;whiteSpace=wrap;html=1;fillColor=none;strokeColor=none;" parent="1" vertex="1">
          <mxGeometry x="290" y="751" width="220" height="20" as="geometry" />
        </mxCell>
        <mxCell id="kwF5IDM4YXNR0EJTPlkq-5" value="" style="rounded=0;whiteSpace=wrap;html=1;fillColor=none;strokeColor=none;" parent="1" vertex="1">
          <mxGeometry x="290" y="771" width="220" height="20" as="geometry" />
        </mxCell>
        <mxCell id="kwF5IDM4YXNR0EJTPlkq-6" value="" style="rounded=0;whiteSpace=wrap;html=1;fillColor=none;strokeColor=none;" parent="1" vertex="1">
          <mxGeometry x="290" y="791" width="220" height="20" as="geometry" />
        </mxCell>
        <mxCell id="kwF5IDM4YXNR0EJTPlkq-7" value="" style="rounded=0;whiteSpace=wrap;html=1;fillColor=none;strokeColor=none;" parent="1" vertex="1">
          <mxGeometry x="290" y="811" width="220" height="20" as="geometry" />
        </mxCell>
        <mxCell id="kwF5IDM4YXNR0EJTPlkq-8" value="" style="rounded=0;whiteSpace=wrap;html=1;fillColor=none;strokeColor=none;" parent="1" vertex="1">
          <mxGeometry x="290" y="831" width="220" height="20" as="geometry" />
        </mxCell>
        <mxCell id="kwF5IDM4YXNR0EJTPlkq-9" value="Betriebsvariablen" style="text;html=1;align=left;verticalAlign=middle;whiteSpace=wrap;rounded=0;fontStyle=4" parent="1" vertex="1">
          <mxGeometry x="290" y="789.5" width="120" height="30" as="geometry" />
        </mxCell>
        <mxCell id="kwF5IDM4YXNR0EJTPlkq-10" value="" style="rounded=0;whiteSpace=wrap;html=1;fillColor=none;strokeColor=none;" parent="1" vertex="1">
          <mxGeometry x="290" y="819.5" width="220" height="20" as="geometry" />
        </mxCell>
        <mxCell id="kwF5IDM4YXNR0EJTPlkq-11" value="" style="endArrow=none;html=1;rounded=0;strokeWidth=2;" parent="1" source="kwF5IDM4YXNR0EJTPlkq-10" edge="1">
          <mxGeometry width="50" height="50" relative="1" as="geometry">
            <mxPoint x="330" y="889.5" as="sourcePoint" />
            <mxPoint x="270" y="829.5" as="targetPoint" />
          </mxGeometry>
        </mxCell>
        <mxCell id="kwF5IDM4YXNR0EJTPlkq-12" value="eSysCommand" style="text;html=1;align=left;verticalAlign=middle;whiteSpace=wrap;rounded=0;fontStyle=0;fontSize=10;" parent="1" vertex="1">
          <mxGeometry x="294" y="824.5" width="76" height="10" as="geometry" />
        </mxCell>
        <mxCell id="kwF5IDM4YXNR0EJTPlkq-13" value="" style="endArrow=none;html=1;rounded=0;strokeWidth=2;" parent="1" edge="1">
          <mxGeometry width="50" height="50" relative="1" as="geometry">
            <mxPoint x="290" y="849.5" as="sourcePoint" />
            <mxPoint x="270" y="849.5" as="targetPoint" />
          </mxGeometry>
        </mxCell>
        <mxCell id="kwF5IDM4YXNR0EJTPlkq-14" value="eSysState" style="text;html=1;align=left;verticalAlign=middle;whiteSpace=wrap;rounded=0;fontStyle=0;fontSize=10;" parent="1" vertex="1">
          <mxGeometry x="294" y="844.5" width="76" height="10" as="geometry" />
        </mxCell>
        <mxCell id="kwF5IDM4YXNR0EJTPlkq-15" value="&lt;u&gt;Prozessmethoden&lt;/u&gt; (Intern)" style="text;html=1;align=left;verticalAlign=middle;whiteSpace=wrap;rounded=0;fontStyle=0" parent="1" vertex="1">
          <mxGeometry x="290" y="883" width="190" height="30" as="geometry" />
        </mxCell>
        <mxCell id="kwF5IDM4YXNR0EJTPlkq-16" value="" style="endArrow=none;html=1;rounded=0;fillColor=#f8cecc;strokeColor=#b85450;entryX=1;entryY=0.464;entryDx=0;entryDy=0;entryPerimeter=0;exitX=0;exitY=0.466;exitDx=0;exitDy=0;exitPerimeter=0;strokeWidth=1;dashed=1;" parent="1" edge="1">
          <mxGeometry width="50" height="50" relative="1" as="geometry">
            <mxPoint x="280" y="789.5799999999999" as="sourcePoint" />
            <mxPoint x="520" y="789" as="targetPoint" />
          </mxGeometry>
        </mxCell>
        <mxCell id="kwF5IDM4YXNR0EJTPlkq-17" value="" style="endArrow=none;html=1;rounded=0;fillColor=#f8cecc;strokeColor=#b85450;exitX=0;exitY=0.792;exitDx=0;exitDy=0;exitPerimeter=0;strokeWidth=1;dashed=1;entryX=1;entryY=0.793;entryDx=0;entryDy=0;entryPerimeter=0;" parent="1" edge="1">
          <mxGeometry width="50" height="50" relative="1" as="geometry">
            <mxPoint x="280" y="882.9999999999999" as="sourcePoint" />
            <mxPoint x="520" y="883.2900000000001" as="targetPoint" />
          </mxGeometry>
        </mxCell>
        <mxCell id="kwF5IDM4YXNR0EJTPlkq-18" value="Skill" style="rounded=0;whiteSpace=wrap;html=1;rotation=-90;fillColor=#fff2cc;strokeColor=#d6b656;" parent="1" vertex="1">
          <mxGeometry x="555" y="746" width="100" height="30" as="geometry" />
        </mxCell>
        <mxCell id="kwF5IDM4YXNR0EJTPlkq-19" value="Systemparameter" style="rounded=0;whiteSpace=wrap;html=1;rotation=-90;fillColor=#f5f5f5;fontColor=#333333;strokeColor=#666666;" parent="1" vertex="1">
          <mxGeometry x="540" y="871" width="130" height="30" as="geometry" />
        </mxCell>
        <mxCell id="kwF5IDM4YXNR0EJTPlkq-21" value="Systemparameter" style="rounded=0;whiteSpace=wrap;html=1;rotation=-90;fillColor=#f5f5f5;fontColor=#333333;strokeColor=#666666;" parent="1" vertex="1">
          <mxGeometry x="120" y="835" width="130" height="30" as="geometry" />
        </mxCell>
        <mxCell id="kwF5IDM4YXNR0EJTPlkq-22" style="edgeStyle=orthogonalEdgeStyle;rounded=0;orthogonalLoop=1;jettySize=auto;html=1;endArrow=none;endFill=0;strokeWidth=2;" parent="1" edge="1">
          <mxGeometry relative="1" as="geometry">
            <mxPoint x="530" y="829.5" as="targetPoint" />
            <mxPoint x="510" y="829.5" as="sourcePoint" />
          </mxGeometry>
        </mxCell>
        <mxCell id="kwF5IDM4YXNR0EJTPlkq-23" value="iErrorID" style="text;html=1;align=right;verticalAlign=middle;whiteSpace=wrap;rounded=0;fontStyle=0;fontSize=10;" parent="1" vertex="1">
          <mxGeometry x="429" y="824.5" width="75" height="10" as="geometry" />
        </mxCell>
        <mxCell id="kwF5IDM4YXNR0EJTPlkq-24" value="" style="group" parent="1" vertex="1" connectable="0">
          <mxGeometry x="280" y="1031" width="210" height="50" as="geometry" />
        </mxCell>
        <mxCell id="kwF5IDM4YXNR0EJTPlkq-25" value="2: Objektschnittstelle" style="text;html=1;align=left;verticalAlign=middle;whiteSpace=wrap;rounded=0;fontSize=8;fontStyle=2" parent="kwF5IDM4YXNR0EJTPlkq-24" vertex="1">
          <mxGeometry y="20" width="140" height="10" as="geometry" />
        </mxCell>
        <mxCell id="kwF5IDM4YXNR0EJTPlkq-26" value="3: Modellschnittstelle" style="text;html=1;align=left;verticalAlign=middle;whiteSpace=wrap;rounded=0;fontSize=8;fontStyle=2" parent="kwF5IDM4YXNR0EJTPlkq-24" vertex="1">
          <mxGeometry y="30" width="140" height="20" as="geometry" />
        </mxCell>
        <mxCell id="kwF5IDM4YXNR0EJTPlkq-27" value="1: Interne Schnittstelle von Anlagenmodell" style="text;html=1;align=left;verticalAlign=middle;whiteSpace=wrap;rounded=0;fontSize=8;fontStyle=2" parent="kwF5IDM4YXNR0EJTPlkq-24" vertex="1">
          <mxGeometry width="210" height="20" as="geometry" />
        </mxCell>
        <mxCell id="kwF5IDM4YXNR0EJTPlkq-28" value="" style="endArrow=none;html=1;rounded=0;strokeWidth=2;" parent="1" edge="1">
          <mxGeometry width="50" height="50" relative="1" as="geometry">
            <mxPoint x="290" y="870" as="sourcePoint" />
            <mxPoint x="270" y="870" as="targetPoint" />
          </mxGeometry>
        </mxCell>
        <mxCell id="kwF5IDM4YXNR0EJTPlkq-29" value="iMode&amp;nbsp;" style="text;html=1;align=left;verticalAlign=middle;whiteSpace=wrap;rounded=0;fontStyle=0;fontSize=10;" parent="1" vertex="1">
          <mxGeometry x="294" y="865" width="76" height="10" as="geometry" />
        </mxCell>
        <mxCell id="kwF5IDM4YXNR0EJTPlkq-36" style="edgeStyle=orthogonalEdgeStyle;rounded=0;orthogonalLoop=1;jettySize=auto;html=1;endArrow=none;endFill=0;strokeWidth=2;" parent="1" source="kwF5IDM4YXNR0EJTPlkq-37" edge="1">
          <mxGeometry relative="1" as="geometry">
            <mxPoint x="530" y="766" as="targetPoint" />
          </mxGeometry>
        </mxCell>
        <mxCell id="kwF5IDM4YXNR0EJTPlkq-37" value="P_State (GET)" style="rounded=0;whiteSpace=wrap;html=1;fillColor=#F19C99;strokeColor=#b85450;fontSize=12;" parent="1" vertex="1">
          <mxGeometry x="290" y="751" width="220" height="30" as="geometry" />
        </mxCell>
        <mxCell id="kwF5IDM4YXNR0EJTPlkq-39" value="M_Prozessmethoden" style="rounded=0;whiteSpace=wrap;html=1;fillColor=#F19C99;strokeColor=#b85450;fontSize=12;" parent="1" vertex="1">
          <mxGeometry x="290" y="913" width="220" height="30" as="geometry" />
        </mxCell>
        <mxCell id="kwF5IDM4YXNR0EJTPlkq-40" value="" style="endArrow=none;html=1;rounded=0;fillColor=#f8cecc;strokeColor=#b85450;exitX=0;exitY=0.792;exitDx=0;exitDy=0;exitPerimeter=0;strokeWidth=1;dashed=1;entryX=1;entryY=0.793;entryDx=0;entryDy=0;entryPerimeter=0;" parent="1" edge="1">
          <mxGeometry width="50" height="50" relative="1" as="geometry">
            <mxPoint x="280" y="948.9999999999999" as="sourcePoint" />
            <mxPoint x="520" y="949.2900000000001" as="targetPoint" />
          </mxGeometry>
        </mxCell>
        <mxCell id="kwF5IDM4YXNR0EJTPlkq-41" value="Prozesseigenschaften" style="text;html=1;align=left;verticalAlign=middle;whiteSpace=wrap;rounded=0;fontStyle=4" parent="1" vertex="1">
          <mxGeometry x="290" y="949" width="120" height="30" as="geometry" />
        </mxCell>
        <mxCell id="kwF5IDM4YXNR0EJTPlkq-44" style="edgeStyle=orthogonalEdgeStyle;rounded=0;orthogonalLoop=1;jettySize=auto;html=1;strokeWidth=2;endArrow=none;endFill=0;" parent="1" source="kwF5IDM4YXNR0EJTPlkq-45" edge="1">
          <mxGeometry relative="1" as="geometry">
            <mxPoint x="530" y="995" as="targetPoint" />
          </mxGeometry>
        </mxCell>
        <mxCell id="kwF5IDM4YXNR0EJTPlkq-45" value="P_Prozessinformationen (GET)" style="rounded=0;whiteSpace=wrap;html=1;fillColor=#F19C99;strokeColor=#b85450;fontSize=12;" parent="1" vertex="1">
          <mxGeometry x="290" y="980" width="220" height="30" as="geometry" />
        </mxCell>
        <mxCell id="kwF5IDM4YXNR0EJTPlkq-47" value="Manuell-HMI" style="rounded=0;whiteSpace=wrap;html=1;rotation=-90;fillColor=#d5e8d4;strokeColor=#82b366;" parent="1" vertex="1">
          <mxGeometry x="540" y="1011" width="130" height="30" as="geometry" />
        </mxCell>
        <mxCell id="kwF5IDM4YXNR0EJTPlkq-80" value="" style="endArrow=none;html=1;rounded=0;fillColor=#dae8fc;strokeColor=#6c8ebf;" parent="1" edge="1">
          <mxGeometry width="50" height="50" relative="1" as="geometry">
            <mxPoint x="590" y="781.15" as="sourcePoint" />
            <mxPoint x="570" y="781" as="targetPoint" />
          </mxGeometry>
        </mxCell>
        <mxCell id="kwF5IDM4YXNR0EJTPlkq-81" value="" style="endArrow=none;html=1;rounded=0;fillColor=#dae8fc;strokeColor=#6c8ebf;" parent="1" edge="1">
          <mxGeometry width="50" height="50" relative="1" as="geometry">
            <mxPoint x="570" y="995" as="sourcePoint" />
            <mxPoint x="570" y="781" as="targetPoint" />
          </mxGeometry>
        </mxCell>
        <mxCell id="kwF5IDM4YXNR0EJTPlkq-82" value="" style="endArrow=none;html=1;rounded=0;fillColor=#dae8fc;strokeColor=#6c8ebf;" parent="1" edge="1">
          <mxGeometry width="50" height="50" relative="1" as="geometry">
            <mxPoint x="570" y="995" as="sourcePoint" />
            <mxPoint x="540" y="994.83" as="targetPoint" />
          </mxGeometry>
        </mxCell>
        <mxCell id="kwF5IDM4YXNR0EJTPlkq-83" value="" style="endArrow=none;html=1;rounded=0;" parent="1" edge="1">
          <mxGeometry width="50" height="50" relative="1" as="geometry">
            <mxPoint x="564" y="913" as="sourcePoint" />
            <mxPoint x="540" y="913" as="targetPoint" />
            <Array as="points">
              <mxPoint x="564" y="913" />
            </Array>
          </mxGeometry>
        </mxCell>
        <mxCell id="kwF5IDM4YXNR0EJTPlkq-84" value="" style="endArrow=none;html=1;rounded=0;" parent="1" edge="1">
          <mxGeometry width="50" height="50" relative="1" as="geometry">
            <mxPoint x="590" y="912.7199999999999" as="sourcePoint" />
            <mxPoint x="575" y="912.7199999999999" as="targetPoint" />
          </mxGeometry>
        </mxCell>
        <mxCell id="kwF5IDM4YXNR0EJTPlkq-86" value="" style="endArrow=none;html=1;rounded=0;dashed=1;entryX=0.538;entryY=0;entryDx=0;entryDy=0;entryPerimeter=0;" parent="1" target="kwF5IDM4YXNR0EJTPlkq-47" edge="1">
          <mxGeometry width="50" height="50" relative="1" as="geometry">
            <mxPoint x="530" y="1021" as="sourcePoint" />
            <mxPoint x="555" y="1081" as="targetPoint" />
          </mxGeometry>
        </mxCell>
        <mxCell id="kwF5IDM4YXNR0EJTPlkq-97" value="3" style="ellipse;whiteSpace=wrap;html=1;aspect=fixed;fontSize=6;fillColor=#f5f5f5;fontColor=#333333;strokeColor=#666666;" parent="1" vertex="1">
          <mxGeometry x="524" y="752" width="10" height="10" as="geometry" />
        </mxCell>
        <mxCell id="kwF5IDM4YXNR0EJTPlkq-103" value="2" style="ellipse;whiteSpace=wrap;html=1;aspect=fixed;fontSize=6;fillColor=#f5f5f5;fontColor=#333333;strokeColor=#666666;" parent="1" vertex="1">
          <mxGeometry x="265" y="814.5" width="10" height="10" as="geometry" />
        </mxCell>
        <mxCell id="kwF5IDM4YXNR0EJTPlkq-104" value="2" style="ellipse;whiteSpace=wrap;html=1;aspect=fixed;fontSize=6;fillColor=#f5f5f5;fontColor=#333333;strokeColor=#666666;" parent="1" vertex="1">
          <mxGeometry x="265" y="835" width="10" height="10" as="geometry" />
        </mxCell>
        <mxCell id="kwF5IDM4YXNR0EJTPlkq-105" value="2" style="ellipse;whiteSpace=wrap;html=1;aspect=fixed;fontSize=6;fillColor=#f5f5f5;fontColor=#333333;strokeColor=#666666;" parent="1" vertex="1">
          <mxGeometry x="265" y="855.5" width="10" height="10" as="geometry" />
        </mxCell>
        <mxCell id="kwF5IDM4YXNR0EJTPlkq-106" value="2" style="ellipse;whiteSpace=wrap;html=1;aspect=fixed;fontSize=6;fillColor=#f5f5f5;fontColor=#333333;strokeColor=#666666;" parent="1" vertex="1">
          <mxGeometry x="524" y="815.5" width="10" height="10" as="geometry" />
        </mxCell>
        <mxCell id="kwF5IDM4YXNR0EJTPlkq-107" value="1" style="ellipse;whiteSpace=wrap;html=1;aspect=fixed;fontSize=6;fillColor=#f5f5f5;fontColor=#333333;strokeColor=#666666;" parent="1" vertex="1">
          <mxGeometry x="537" y="981" width="10" height="10" as="geometry" />
        </mxCell>
        <mxCell id="kwF5IDM4YXNR0EJTPlkq-108" value="3" style="ellipse;whiteSpace=wrap;html=1;aspect=fixed;fontSize=6;fillColor=#f5f5f5;fontColor=#333333;strokeColor=#666666;" parent="1" vertex="1">
          <mxGeometry x="524" y="981" width="10" height="10" as="geometry" />
        </mxCell>
        <mxCell id="kwF5IDM4YXNR0EJTPlkq-117" value="" style="endArrow=none;html=1;rounded=0;fillColor=#dae8fc;strokeColor=#6c8ebf;" parent="1" edge="1">
          <mxGeometry width="50" height="50" relative="1" as="geometry">
            <mxPoint x="589" y="766" as="sourcePoint" />
            <mxPoint x="540" y="766" as="targetPoint" />
          </mxGeometry>
        </mxCell>
        <mxCell id="kwF5IDM4YXNR0EJTPlkq-119" value="" style="endArrow=none;html=1;rounded=0;" parent="1" edge="1">
          <mxGeometry width="50" height="50" relative="1" as="geometry">
            <mxPoint x="539.72" y="913.5" as="sourcePoint" />
            <mxPoint x="540" y="830" as="targetPoint" />
          </mxGeometry>
        </mxCell>
        <mxCell id="kwF5IDM4YXNR0EJTPlkq-120" value="" style="endArrow=none;html=1;rounded=0;" parent="1" edge="1">
          <mxGeometry width="50" height="50" relative="1" as="geometry">
            <mxPoint x="590" y="860.36" as="sourcePoint" />
            <mxPoint x="575" y="860.36" as="targetPoint" />
          </mxGeometry>
        </mxCell>
        <mxCell id="kwF5IDM4YXNR0EJTPlkq-121" value="" style="endArrow=none;html=1;rounded=0;" parent="1" edge="1">
          <mxGeometry width="50" height="50" relative="1" as="geometry">
            <mxPoint x="564" y="860.36" as="sourcePoint" />
            <mxPoint x="550" y="860.36" as="targetPoint" />
            <Array as="points">
              <mxPoint x="564" y="860.36" />
            </Array>
          </mxGeometry>
        </mxCell>
        <mxCell id="kwF5IDM4YXNR0EJTPlkq-122" value="" style="endArrow=none;html=1;rounded=0;" parent="1" edge="1">
          <mxGeometry width="50" height="50" relative="1" as="geometry">
            <mxPoint x="550" y="861" as="sourcePoint" />
            <mxPoint x="550" y="791" as="targetPoint" />
          </mxGeometry>
        </mxCell>
        <mxCell id="kwF5IDM4YXNR0EJTPlkq-123" value="" style="endArrow=none;html=1;rounded=0;" parent="1" edge="1">
          <mxGeometry width="50" height="50" relative="1" as="geometry">
            <mxPoint x="530" y="791" as="sourcePoint" />
            <mxPoint x="550" y="791" as="targetPoint" />
          </mxGeometry>
        </mxCell>
        <mxCell id="kwF5IDM4YXNR0EJTPlkq-124" value="" style="endArrow=none;html=1;rounded=0;" parent="1" edge="1">
          <mxGeometry width="50" height="50" relative="1" as="geometry">
            <mxPoint x="530" y="791" as="sourcePoint" />
            <mxPoint x="530" y="771" as="targetPoint" />
          </mxGeometry>
        </mxCell>
        <mxCell id="kwF5IDM4YXNR0EJTPlkq-126" value="" style="endArrow=none;html=1;rounded=0;dashed=1;" parent="1" edge="1">
          <mxGeometry width="50" height="50" relative="1" as="geometry">
            <mxPoint x="530" y="1021" as="sourcePoint" />
            <mxPoint x="530" y="1001" as="targetPoint" />
          </mxGeometry>
        </mxCell>
        <mxCell id="kwF5IDM4YXNR0EJTPlkq-128" value="" style="endArrow=none;html=1;rounded=0;" parent="1" edge="1">
          <mxGeometry width="50" height="50" relative="1" as="geometry">
            <mxPoint x="265" y="829.83" as="sourcePoint" />
            <mxPoint x="200" y="830" as="targetPoint" />
          </mxGeometry>
        </mxCell>
        <mxCell id="kwF5IDM4YXNR0EJTPlkq-129" value="" style="endArrow=none;html=1;rounded=0;" parent="1" edge="1">
          <mxGeometry width="50" height="50" relative="1" as="geometry">
            <mxPoint x="265" y="849.6700000000001" as="sourcePoint" />
            <mxPoint x="200" y="849.84" as="targetPoint" />
          </mxGeometry>
        </mxCell>
        <mxCell id="kwF5IDM4YXNR0EJTPlkq-130" value="" style="endArrow=none;html=1;rounded=0;" parent="1" edge="1">
          <mxGeometry width="50" height="50" relative="1" as="geometry">
            <mxPoint x="265" y="869.83" as="sourcePoint" />
            <mxPoint x="200" y="870" as="targetPoint" />
          </mxGeometry>
        </mxCell>
        <mxCell id="kwF5IDM4YXNR0EJTPlkq-131" value="" style="endArrow=none;html=1;rounded=0;fillColor=#f8cecc;strokeColor=#b85450;entryX=1;entryY=0.464;entryDx=0;entryDy=0;entryPerimeter=0;exitX=0;exitY=0.466;exitDx=0;exitDy=0;exitPerimeter=0;strokeWidth=1;dashed=1;" parent="1" edge="1">
          <mxGeometry width="50" height="50" relative="1" as="geometry">
            <mxPoint x="280" y="721.5799999999999" as="sourcePoint" />
            <mxPoint x="520" y="721" as="targetPoint" />
          </mxGeometry>
        </mxCell>
        <mxCell id="kwF5IDM4YXNR0EJTPlkq-132" value="Objektvariablen" style="text;html=1;align=left;verticalAlign=middle;whiteSpace=wrap;rounded=0;fontStyle=4" parent="1" vertex="1">
          <mxGeometry x="290.5" y="670" width="220" height="30" as="geometry" />
        </mxCell>
        <mxCell id="kwF5IDM4YXNR0EJTPlkq-134" value="" style="endArrow=none;html=1;rounded=0;fillColor=#f8cecc;strokeColor=#b85450;entryX=1;entryY=0.464;entryDx=0;entryDy=0;entryPerimeter=0;exitX=0;exitY=0.466;exitDx=0;exitDy=0;exitPerimeter=0;strokeWidth=1;dashed=1;" parent="1" edge="1">
          <mxGeometry width="50" height="50" relative="1" as="geometry">
            <mxPoint x="280" y="91.57999999999993" as="sourcePoint" />
            <mxPoint x="520" y="91" as="targetPoint" />
          </mxGeometry>
        </mxCell>
        <mxCell id="kwF5IDM4YXNR0EJTPlkq-135" value="Objektvariablen" style="text;html=1;align=left;verticalAlign=middle;whiteSpace=wrap;rounded=0;fontStyle=4" parent="1" vertex="1">
          <mxGeometry x="290" y="40.42" width="220" height="30" as="geometry" />
        </mxCell>
        <mxCell id="3RlaiQyyQvEsL8TYkNio-1" value="" style="rounded=0;whiteSpace=wrap;html=1;fillColor=none;strokeColor=none;" vertex="1" parent="1">
          <mxGeometry x="290" y="691" width="220" height="20" as="geometry" />
        </mxCell>
        <mxCell id="3RlaiQyyQvEsL8TYkNio-2" value="" style="rounded=0;whiteSpace=wrap;html=1;fillColor=none;strokeColor=none;" vertex="1" parent="1">
          <mxGeometry x="284" y="701" width="220" height="20" as="geometry" />
        </mxCell>
        <mxCell id="3RlaiQyyQvEsL8TYkNio-3" value="" style="endArrow=none;html=1;rounded=0;strokeWidth=2;" edge="1" parent="1" source="3RlaiQyyQvEsL8TYkNio-2">
          <mxGeometry width="50" height="50" relative="1" as="geometry">
            <mxPoint x="330" y="769.5" as="sourcePoint" />
            <mxPoint x="270" y="709.5" as="targetPoint" />
          </mxGeometry>
        </mxCell>
        <mxCell id="3RlaiQyyQvEsL8TYkNio-4" value="Objektparameter" style="text;html=1;align=left;verticalAlign=middle;whiteSpace=wrap;rounded=0;fontStyle=0;fontSize=10;" vertex="1" parent="1">
          <mxGeometry x="294" y="704.5" width="76" height="10" as="geometry" />
        </mxCell>
        <mxCell id="3RlaiQyyQvEsL8TYkNio-5" style="edgeStyle=orthogonalEdgeStyle;rounded=0;orthogonalLoop=1;jettySize=auto;html=1;endArrow=none;endFill=0;strokeWidth=2;" edge="1" parent="1">
          <mxGeometry relative="1" as="geometry">
            <mxPoint x="530" y="709.5" as="targetPoint" />
            <mxPoint x="510" y="709.5" as="sourcePoint" />
          </mxGeometry>
        </mxCell>
        <mxCell id="3RlaiQyyQvEsL8TYkNio-6" value="Anlagenparameter" style="text;html=1;align=right;verticalAlign=middle;whiteSpace=wrap;rounded=0;fontStyle=0;fontSize=10;" vertex="1" parent="1">
          <mxGeometry x="429" y="704.5" width="75" height="10" as="geometry" />
        </mxCell>
        <mxCell id="3RlaiQyyQvEsL8TYkNio-10" value="EA-Klemmen" style="rounded=0;whiteSpace=wrap;html=1;rotation=-90;fillColor=#dae8fc;strokeColor=#6c8ebf;" vertex="1" parent="1">
          <mxGeometry x="564.25" y="645.75" width="81.5" height="30" as="geometry" />
        </mxCell>
        <mxCell id="3RlaiQyyQvEsL8TYkNio-11" value="" style="endArrow=none;html=1;rounded=0;" edge="1" parent="1">
          <mxGeometry width="50" height="50" relative="1" as="geometry">
            <mxPoint x="240" y="811" as="sourcePoint" />
            <mxPoint x="200" y="810.77" as="targetPoint" />
          </mxGeometry>
        </mxCell>
        <mxCell id="3RlaiQyyQvEsL8TYkNio-12" value="" style="endArrow=none;html=1;rounded=0;" edge="1" parent="1">
          <mxGeometry width="50" height="50" relative="1" as="geometry">
            <mxPoint x="240" y="811" as="sourcePoint" />
            <mxPoint x="240" y="710" as="targetPoint" />
          </mxGeometry>
        </mxCell>
        <mxCell id="3RlaiQyyQvEsL8TYkNio-13" value="" style="endArrow=none;html=1;rounded=0;" edge="1" parent="1">
          <mxGeometry width="50" height="50" relative="1" as="geometry">
            <mxPoint x="260" y="710" as="sourcePoint" />
            <mxPoint x="240" y="710" as="targetPoint" />
          </mxGeometry>
        </mxCell>
        <mxCell id="3RlaiQyyQvEsL8TYkNio-14" value="2" style="ellipse;whiteSpace=wrap;html=1;aspect=fixed;fontSize=6;fillColor=#f5f5f5;fontColor=#333333;strokeColor=#666666;" vertex="1" parent="1">
          <mxGeometry x="263" y="696" width="10" height="10" as="geometry" />
        </mxCell>
        <mxCell id="3RlaiQyyQvEsL8TYkNio-15" value="" style="endArrow=none;html=1;rounded=0;" edge="1" parent="1">
          <mxGeometry width="50" height="50" relative="1" as="geometry">
            <mxPoint x="560" y="670" as="sourcePoint" />
            <mxPoint x="590" y="670" as="targetPoint" />
          </mxGeometry>
        </mxCell>
        <mxCell id="3RlaiQyyQvEsL8TYkNio-16" value="" style="endArrow=none;html=1;rounded=0;" edge="1" parent="1">
          <mxGeometry width="50" height="50" relative="1" as="geometry">
            <mxPoint x="560" y="670" as="sourcePoint" />
            <mxPoint x="560" y="710" as="targetPoint" />
          </mxGeometry>
        </mxCell>
        <mxCell id="3RlaiQyyQvEsL8TYkNio-17" value="" style="endArrow=none;html=1;rounded=0;" edge="1" parent="1">
          <mxGeometry width="50" height="50" relative="1" as="geometry">
            <mxPoint x="540" y="710" as="sourcePoint" />
            <mxPoint x="560" y="710" as="targetPoint" />
          </mxGeometry>
        </mxCell>
        <mxCell id="3RlaiQyyQvEsL8TYkNio-18" value="1" style="ellipse;whiteSpace=wrap;html=1;aspect=fixed;fontSize=6;fillColor=#f5f5f5;fontColor=#333333;strokeColor=#666666;" vertex="1" parent="1">
          <mxGeometry x="524" y="694.5" width="10" height="10" as="geometry" />
        </mxCell>
        <mxCell id="3RlaiQyyQvEsL8TYkNio-19" value="" style="endArrow=none;html=1;rounded=0;fillColor=#f8cecc;strokeColor=#b85450;entryX=1;entryY=0.464;entryDx=0;entryDy=0;entryPerimeter=0;exitX=0;exitY=0.466;exitDx=0;exitDy=0;exitPerimeter=0;strokeWidth=1;dashed=1;" edge="1" parent="1">
          <mxGeometry width="50" height="50" relative="1" as="geometry">
            <mxPoint x="280" y="90.99999999999989" as="sourcePoint" />
            <mxPoint x="520" y="90.41999999999996" as="targetPoint" />
          </mxGeometry>
        </mxCell>
        <mxCell id="3RlaiQyyQvEsL8TYkNio-20" value="" style="rounded=0;whiteSpace=wrap;html=1;fillColor=none;strokeColor=none;" vertex="1" parent="1">
          <mxGeometry x="284" y="70.41999999999996" width="220" height="20" as="geometry" />
        </mxCell>
        <mxCell id="3RlaiQyyQvEsL8TYkNio-21" value="" style="endArrow=none;html=1;rounded=0;strokeWidth=2;" edge="1" parent="1" source="3RlaiQyyQvEsL8TYkNio-20">
          <mxGeometry width="50" height="50" relative="1" as="geometry">
            <mxPoint x="330" y="138.91999999999996" as="sourcePoint" />
            <mxPoint x="270" y="78.91999999999996" as="targetPoint" />
          </mxGeometry>
        </mxCell>
        <mxCell id="3RlaiQyyQvEsL8TYkNio-22" value="Objektparameter" style="text;html=1;align=left;verticalAlign=middle;whiteSpace=wrap;rounded=0;fontStyle=0;fontSize=10;" vertex="1" parent="1">
          <mxGeometry x="294" y="73.91999999999996" width="76" height="10" as="geometry" />
        </mxCell>
        <mxCell id="3RlaiQyyQvEsL8TYkNio-23" style="edgeStyle=orthogonalEdgeStyle;rounded=0;orthogonalLoop=1;jettySize=auto;html=1;endArrow=none;endFill=0;strokeWidth=2;" edge="1" parent="1">
          <mxGeometry relative="1" as="geometry">
            <mxPoint x="530" y="78.91999999999996" as="targetPoint" />
            <mxPoint x="510" y="78.91999999999996" as="sourcePoint" />
          </mxGeometry>
        </mxCell>
        <mxCell id="3RlaiQyyQvEsL8TYkNio-24" value="Anlagenparameter" style="text;html=1;align=right;verticalAlign=middle;whiteSpace=wrap;rounded=0;fontStyle=0;fontSize=10;" vertex="1" parent="1">
          <mxGeometry x="429" y="73.91999999999996" width="75" height="10" as="geometry" />
        </mxCell>
        <mxCell id="3RlaiQyyQvEsL8TYkNio-25" value="2" style="ellipse;whiteSpace=wrap;html=1;aspect=fixed;fontSize=6;fillColor=#f5f5f5;fontColor=#333333;strokeColor=#666666;" vertex="1" parent="1">
          <mxGeometry x="263" y="65.41999999999996" width="10" height="10" as="geometry" />
        </mxCell>
        <mxCell id="3RlaiQyyQvEsL8TYkNio-26" value="1" style="ellipse;whiteSpace=wrap;html=1;aspect=fixed;fontSize=6;fillColor=#f5f5f5;fontColor=#333333;strokeColor=#666666;" vertex="1" parent="1">
          <mxGeometry x="524" y="63.91999999999996" width="10" height="10" as="geometry" />
        </mxCell>
        <mxCell id="3RlaiQyyQvEsL8TYkNio-27" value="EA-Klemmen" style="rounded=0;whiteSpace=wrap;html=1;rotation=-90;fillColor=#dae8fc;strokeColor=#6c8ebf;" vertex="1" parent="1">
          <mxGeometry x="564.25" y="43.91999999999999" width="81.5" height="30" as="geometry" />
        </mxCell>
        <mxCell id="3RlaiQyyQvEsL8TYkNio-28" value="" style="endArrow=none;html=1;rounded=0;entryX=0.5;entryY=0;entryDx=0;entryDy=0;" edge="1" parent="1" target="3RlaiQyyQvEsL8TYkNio-27">
          <mxGeometry width="50" height="50" relative="1" as="geometry">
            <mxPoint x="560" y="59" as="sourcePoint" />
            <mxPoint x="550" y="311" as="targetPoint" />
          </mxGeometry>
        </mxCell>
        <mxCell id="3RlaiQyyQvEsL8TYkNio-29" value="" style="endArrow=none;html=1;rounded=0;" edge="1" parent="1">
          <mxGeometry width="50" height="50" relative="1" as="geometry">
            <mxPoint x="560" y="60" as="sourcePoint" />
            <mxPoint x="560" y="80" as="targetPoint" />
          </mxGeometry>
        </mxCell>
        <mxCell id="3RlaiQyyQvEsL8TYkNio-30" value="" style="endArrow=none;html=1;rounded=0;" edge="1" parent="1">
          <mxGeometry width="50" height="50" relative="1" as="geometry">
            <mxPoint x="540" y="80" as="sourcePoint" />
            <mxPoint x="560" y="80" as="targetPoint" />
          </mxGeometry>
        </mxCell>
        <mxCell id="3RlaiQyyQvEsL8TYkNio-31" value="" style="endArrow=none;html=1;rounded=0;entryX=0.917;entryY=1.028;entryDx=0;entryDy=0;entryPerimeter=0;" edge="1" parent="1" target="eThXzIZxuzrMQbyXuAEO-67">
          <mxGeometry width="50" height="50" relative="1" as="geometry">
            <mxPoint x="220" y="262" as="sourcePoint" />
            <mxPoint x="210" y="311" as="targetPoint" />
          </mxGeometry>
        </mxCell>
        <mxCell id="3RlaiQyyQvEsL8TYkNio-32" value="" style="endArrow=none;html=1;rounded=0;" edge="1" parent="1">
          <mxGeometry width="50" height="50" relative="1" as="geometry">
            <mxPoint x="220" y="262" as="sourcePoint" />
            <mxPoint x="220" y="227" as="targetPoint" />
          </mxGeometry>
        </mxCell>
        <mxCell id="3RlaiQyyQvEsL8TYkNio-33" value="" style="endArrow=none;html=1;rounded=0;" edge="1" parent="1">
          <mxGeometry width="50" height="50" relative="1" as="geometry">
            <mxPoint x="220" y="206" as="sourcePoint" />
            <mxPoint x="220" y="216" as="targetPoint" />
          </mxGeometry>
        </mxCell>
        <mxCell id="3RlaiQyyQvEsL8TYkNio-34" value="" style="endArrow=none;html=1;rounded=0;" edge="1" parent="1">
          <mxGeometry width="50" height="50" relative="1" as="geometry">
            <mxPoint x="220" y="186" as="sourcePoint" />
            <mxPoint x="220" y="196" as="targetPoint" />
          </mxGeometry>
        </mxCell>
        <mxCell id="3RlaiQyyQvEsL8TYkNio-35" value="" style="endArrow=none;html=1;rounded=0;" edge="1" parent="1">
          <mxGeometry width="50" height="50" relative="1" as="geometry">
            <mxPoint x="220" y="166" as="sourcePoint" />
            <mxPoint x="220" y="176" as="targetPoint" />
          </mxGeometry>
        </mxCell>
        <mxCell id="3RlaiQyyQvEsL8TYkNio-36" value="" style="endArrow=none;html=1;rounded=0;" edge="1" parent="1">
          <mxGeometry width="50" height="50" relative="1" as="geometry">
            <mxPoint x="220" y="146" as="sourcePoint" />
            <mxPoint x="220" y="156" as="targetPoint" />
          </mxGeometry>
        </mxCell>
        <mxCell id="3RlaiQyyQvEsL8TYkNio-37" value="" style="endArrow=none;html=1;rounded=0;" edge="1" parent="1">
          <mxGeometry width="50" height="50" relative="1" as="geometry">
            <mxPoint x="220" y="80" as="sourcePoint" />
            <mxPoint x="220" y="136" as="targetPoint" />
          </mxGeometry>
        </mxCell>
        <mxCell id="3RlaiQyyQvEsL8TYkNio-38" value="" style="endArrow=none;html=1;rounded=0;" edge="1" parent="1">
          <mxGeometry width="50" height="50" relative="1" as="geometry">
            <mxPoint x="220" y="80" as="sourcePoint" />
            <mxPoint x="260" y="80" as="targetPoint" />
          </mxGeometry>
        </mxCell>
      </root>
    </mxGraphModel>
  </diagram>
</mxfile>
